<?xml version="1.0" encoding="UTF-8" standalone="no"?>
<svg
   xmlns:dc="http://purl.org/dc/elements/1.1/"
   xmlns:cc="http://creativecommons.org/ns#"
   xmlns:rdf="http://www.w3.org/1999/02/22-rdf-syntax-ns#"
   xmlns:svg="http://www.w3.org/2000/svg"
   xmlns="http://www.w3.org/2000/svg"
   viewBox="0 0 1092.9867 1334.8667"
   height="1334.8667"
   width="1092.9867"
   xml:space="preserve"
   id="svg2"
   version="1.1"><metadata
     id="metadata8"><rdf:RDF><cc:Work
         rdf:about=""><dc:format>image/svg+xml</dc:format><dc:type
           rdf:resource="http://purl.org/dc/dcmitype/StillImage" /></cc:Work></rdf:RDF></metadata><defs
     id="defs6" /><g
     transform="matrix(1.3333333,0,0,-1.3333333,0,1334.8667)"
     id="g10"><g
       transform="scale(0.1)"
       id="g12"><path
         id="path14"
         style="fill:#64c431;fill-opacity:1;fill-rule:nonzero;stroke:none"
         d="M 3191.7,8195.25 C 2127.8,5803.13 1063.9,3411.01 0,1018.88 c 893.035,0 1786.07,0 2679.1,0 468.3,1099.02 923.95,2324.65 1392.25,3423.68 333.29,-848.45 530.3,-1290.58 863.59,-2139.03 299.54,0 517.22,0 816.76,0 C 5109.29,3786.93 4697.68,4737.41 4055.26,6220.8 3404.94,4736.77 2754.61,3252.74 2104.29,1768.71 c -308.34,3.18 -522.11,-1.28 -830.45,1.91 l 2341.86,5470.66 -424,953.97" /><path
         id="path16"
         style="fill:#64c431;fill-opacity:1;fill-rule:nonzero;stroke:none"
         d="M 2995.52,0 4055.26,2303.53 5185.14,0 Z" /><path
         id="path18"
         style="fill:#64c431;fill-opacity:1;fill-rule:nonzero;stroke:none"
         d="M 4055.26,10011.5 8197.42,1018.88 H 5425.61 l -278.47,751.74 H 6906.45 L 3615.7,8986.3 l 439.56,1025.2" /></g></g></svg>